<?xml version="1.0" encoding="utf-8"?>
<svg xmlns="http://www.w3.org/2000/svg" style="margin: auto; background: rgba(0, 0, 0,0) none repeat scroll 0% 0%; display: block; shape-rendering: auto;" width="288" height="300" preserveAspectRatio="xMidYMid">
<style type="text/css">
  text {
    text-anchor: middle; font-size: 43px; opacity: 0;
  }
</style>
<g style="transform-origin: 144px 150px 0px; transform: scale(0.5375);">
<g transform="translate(144,150)">
  <g transform="translate(0,0)"><g class="path" style="transform: rotateY(0deg); transform-origin: -165.668px -5.47157px 0px; animation: 1s linear -0.565714s infinite normal forwards running flip-h-6620c439-4e1f-421d-8d2d-0b57c66111ea;"><path d="M46.76-7.15L46.76 0L6.37 0L6.37-56.25L21.88-56.25L21.88-7.15L46.76-7.15" fill="#3c0f0f" stroke="none" stroke-width="none" transform="translate(-192.23331451416016,22.65343205043248)" style="fill: rgb(255, 255, 255);"></path></g><g class="path" style="transform: rotateY(0deg); transform-origin: -113.133px -5.57157px 0px; animation: 1s linear -0.471429s infinite normal forwards running flip-h-6620c439-4e1f-421d-8d2d-0b57c66111ea;"><path d="M110-28.20L110-28.20L110-28.20Q110-21.41 107.66-15.96L107.66-15.96L107.66-15.96Q105.31-10.51 101.17-6.72L101.17-6.72L101.17-6.72Q97.03-2.93 91.37-0.90L91.37-0.90L91.37-0.90Q85.70 1.13 79.10 1.13L79.10 1.13L79.10 1.13Q72.50 1.13 66.84-0.90L66.84-0.90L66.84-0.90Q61.17-2.93 57.03-6.72L57.03-6.72L57.03-6.72Q52.89-10.51 50.55-15.96L50.55-15.96L50.55-15.96Q48.20-21.41 48.20-28.20L48.20-28.20L48.20-28.20Q48.20-35.12 50.53-40.57L50.53-40.57L50.53-40.57Q52.85-46.02 56.97-49.79L56.97-49.79L56.97-49.79Q61.09-53.55 66.76-55.57L66.76-55.57L66.76-55.57Q72.42-57.58 79.10-57.58L79.10-57.58L79.10-57.58Q85.78-57.58 91.45-55.57L91.45-55.57L91.45-55.57Q97.11-53.55 101.23-49.79L101.23-49.79L101.23-49.79Q105.35-46.02 107.68-40.57L107.68-40.57L107.68-40.57Q110-35.12 110-28.20zM94.22-28.20L94.22-28.20L94.22-28.20Q94.22-30.78 93.98-33.48L93.98-33.48L93.98-33.48Q93.75-36.17 93.13-38.71L93.13-38.71L93.13-38.71Q92.50-41.25 91.43-43.48L91.43-43.48L91.43-43.48Q90.35-45.70 88.67-47.36L88.67-47.36L88.67-47.36Q86.99-49.02 84.63-49.98L84.63-49.98L84.63-49.98Q82.27-50.94 79.10-50.94L79.10-50.94L79.10-50.94Q75.90-50.94 73.52-49.98L73.52-49.98L73.52-49.98Q71.13-49.02 69.45-47.38L69.45-47.38L69.45-47.38Q67.77-45.74 66.72-43.52L66.72-43.52L66.72-43.52Q65.66-41.29 65.06-38.77L65.06-38.77L65.06-38.77Q64.45-36.25 64.22-33.54L64.22-33.54L64.22-33.54Q63.98-30.82 63.98-28.20L63.98-28.20L63.98-28.20Q63.98-25.63 64.22-22.93L64.22-22.93L64.22-22.93Q64.45-20.23 65.08-17.71L65.08-17.71L65.08-17.71Q65.70-15.20 66.78-12.97L66.78-12.97L66.78-12.97Q67.85-10.74 69.53-9.08L69.53-9.08L69.53-9.08Q71.21-7.42 73.57-6.45L73.57-6.45L73.57-6.45Q75.94-5.47 79.10-5.47L79.10-5.47L79.10-5.47Q82.19-5.47 84.49-6.46L84.49-6.46L84.49-6.46Q86.80-7.46 88.48-9.16L88.48-9.16L88.48-9.16Q90.16-10.86 91.27-13.11L91.27-13.11L91.27-13.11Q92.38-15.35 93.03-17.87L93.03-17.87L93.03-17.87Q93.67-20.39 93.95-23.05L93.95-23.05L93.95-23.05Q94.22-25.70 94.22-28.20" fill="#3c0f0f" stroke="none" stroke-width="none" transform="translate(-192.23331451416016,22.65343205043248)" style="fill: rgb(255, 255, 255);"></path></g><g class="path" style="transform: rotateY(0deg); transform-origin: -46.1398px -0.101566px 0px; animation: 1s linear -0.377143s infinite normal forwards running flip-h-6620c439-4e1f-421d-8d2d-0b57c66111ea;"><path d="M173.20-26.91L173.20-26.91L173.20-26.17L173.20-26.17Q173.13-22.89 172.52-19.38L172.52-19.38L172.52-19.38Q171.91-15.86 170.82-12.34L170.82-12.34L170.82-12.34Q169.73-8.83 168.20-5.39L168.20-5.39L168.20-5.39Q166.68-1.95 164.79 1.19L164.79 1.19L164.79 1.19Q162.89 4.34 160.70 7.09L160.70 7.09L160.70 7.09Q158.52 9.84 156.09 11.95L156.09 11.95L150.27 8.59L150.27 8.59Q151.64 6.29 152.75 3.57L152.75 3.57L152.75 3.57Q153.87 0.86 154.77-2.11L154.77-2.11L154.77-2.11Q155.66-5.08 156.31-8.20L156.31-8.20L156.31-8.20Q156.95-11.33 157.38-14.41L157.38-14.41L157.38-14.41Q157.81-17.50 158.03-20.49L158.03-20.49L158.03-20.49Q158.24-23.48 158.24-26.17L158.24-26.17L158.24-26.17Q158.24-28.28 158.22-30.96L158.22-30.96L158.22-30.96Q158.20-33.63 157.91-36.41L157.91-36.41L157.91-36.41Q157.62-39.18 156.95-41.82L156.95-41.82L156.95-41.82Q156.29-44.45 154.98-46.52L154.98-46.52L154.98-46.52Q153.67-48.59 151.62-49.84L151.62-49.84L151.62-49.84Q149.57-51.09 146.52-51.09L146.52-51.09L146.52-51.09Q143.83-51.09 141.89-50.18L141.89-50.18L141.89-50.18Q139.96-49.26 138.61-47.71L138.61-47.71L138.61-47.71Q137.27-46.17 136.46-44.14L136.46-44.14L136.46-44.14Q135.66-42.11 135.21-39.86L135.21-39.86L135.21-39.86Q134.77-37.62 134.63-35.33L134.63-35.33L134.63-35.33Q134.49-33.05 134.49-31.02L134.49-31.02L134.49-20.12L151.33-20.12L151.33-13.67L134.49-13.67L134.49 0L118.98 0L118.98-28.59L118.98-28.59Q118.98-34.73 120.94-40L120.94-40L120.94-40Q122.89-45.27 126.46-49.16L126.46-49.16L126.46-49.16Q130.04-53.05 135.06-55.25L135.06-55.25L135.06-55.25Q140.08-57.46 146.25-57.46L146.25-57.46L146.25-57.46Q150.43-57.46 154.08-56.27L154.08-56.27L154.08-56.27Q157.73-55.08 160.74-52.99L160.74-52.99L160.74-52.99Q163.75-50.90 166.11-48.03L166.11-48.03L166.11-48.03Q168.48-45.16 170.06-41.76L170.06-41.76L170.06-41.76Q171.64-38.36 172.46-34.57L172.46-34.57L172.46-34.57Q173.28-30.78 173.20-26.91" fill="#3c0f0f" stroke="none" stroke-width="none" transform="translate(-192.23331451416016,22.65343205043248)" style="fill: rgb(255, 255, 255);"></path></g><g class="path" style="transform: rotateY(0deg); transform-origin: 18.3117px -5.47157px 0px; animation: 1s linear -0.282857s infinite normal forwards running flip-h-6620c439-4e1f-421d-8d2d-0b57c66111ea;"><path d="M237.81-28.20L237.81-28.20L237.81-28.20Q237.81-24.10 236.72-20.41L236.72-20.41L236.72-20.41Q235.63-16.72 233.65-13.59L233.65-13.59L233.65-13.59Q231.68-10.47 228.95-7.95L228.95-7.95L228.95-7.95Q226.21-5.43 222.91-3.67L222.91-3.67L222.91-3.67Q219.61-1.91 215.84-0.96L215.84-0.96L215.84-0.96Q212.07 0 208.09 0L208.09 0L183.28 0L183.28-56.25L208.09-56.25L208.09-56.25Q212.07-56.25 215.82-55.31L215.82-55.31L215.82-55.31Q219.57-54.38 222.87-52.64L222.87-52.64L222.87-52.64Q226.17-50.90 228.93-48.40L228.93-48.40L228.93-48.40Q231.68-45.90 233.65-42.79L233.65-42.79L233.65-42.79Q235.63-39.69 236.72-36.00L236.72-36.00L236.72-36.00Q237.81-32.30 237.81-28.20zM222.07-28.20L222.07-28.20L222.07-28.20Q222.07-32.77 220.96-36.89L220.96-36.89L220.96-36.89Q219.84-41.02 217.50-44.14L217.50-44.14L217.50-44.14Q215.16-47.27 211.54-49.10L211.54-49.10L211.54-49.10Q207.93-50.94 202.89-50.94L202.89-50.94L198.79-50.94L198.79-5.47L202.89-5.47L202.89-5.47Q207.85-5.47 211.46-7.32L211.46-7.32L211.46-7.32Q215.08-9.18 217.44-12.32L217.44-12.32L217.44-12.32Q219.80-15.47 220.94-19.57L220.94-19.57L220.94-19.57Q222.07-23.67 222.07-28.20" fill="#3c0f0f" stroke="none" stroke-width="none" transform="translate(-192.23331451416016,22.65343205043248)" style="fill: rgb(255, 255, 255);"></path></g><g class="path" style="transform: rotateY(0deg); transform-origin: 62.8617px -5.47157px 0px; animation: 1s linear -0.188571s infinite normal forwards running flip-h-6620c439-4e1f-421d-8d2d-0b57c66111ea;"><path d="M262.85-56.25L262.85 0L247.34 0L247.34-56.25L262.85-56.25" fill="#3c0f0f" stroke="none" stroke-width="none" transform="translate(-192.23331451416016,22.65343205043248)" style="fill: rgb(255, 255, 255);"></path></g><g class="path" style="transform: rotateY(0deg); transform-origin: 109.057px -5.47157px 0px; animation: 1s linear -0.0942857s infinite normal forwards running flip-h-6620c439-4e1f-421d-8d2d-0b57c66111ea;"><path d="M282.77-38.59L282.77 0L275.59 0L275.59-56.25L285.66-56.25L319.84-17.62L319.84-56.25L326.99-56.25L326.99 0L316.91 0L282.77-38.59" fill="#3c0f0f" stroke="none" stroke-width="none" transform="translate(-192.23331451416016,22.65343205043248)" style="fill: rgb(255, 255, 255);"></path></g><g class="path" style="transform: rotateY(0deg); transform-origin: 171.437px -5.57157px 0px; animation: 1s linear 0s infinite normal forwards running flip-h-6620c439-4e1f-421d-8d2d-0b57c66111ea;"><path d="M390.82-42.30L390.82-42.30L384.14-39.49L384.14-39.49Q383.36-42.03 382.05-44.14L382.05-44.14L382.05-44.14Q380.74-46.25 378.93-47.75L378.93-47.75L378.93-47.75Q377.11-49.26 374.80-50.10L374.80-50.10L374.80-50.10Q372.50-50.94 369.77-50.94L369.77-50.94L369.77-50.94Q366.84-50.94 364.39-49.96L364.39-49.96L364.39-49.96Q361.95-48.98 360.02-47.32L360.02-47.32L360.02-47.32Q358.09-45.66 356.64-43.44L356.64-43.44L356.64-43.44Q355.20-41.21 354.24-38.69L354.24-38.69L354.24-38.69Q353.28-36.17 352.79-33.48L352.79-33.48L352.79-33.48Q352.30-30.78 352.30-28.20L352.30-28.20L352.30-28.20Q352.30-24.10 353.26-20.04L353.26-20.04L353.26-20.04Q354.22-15.98 356.31-12.73L356.31-12.73L356.31-12.73Q358.40-9.49 361.72-7.48L361.72-7.48L361.72-7.48Q365.04-5.47 369.77-5.47L369.77-5.47L369.77-5.47Q372.34-5.47 373.79-6.62L373.79-6.62L373.79-6.62Q375.23-7.77 375.23-10.66L375.23-10.66L375.23-27.93L390.74-27.93L390.74 0L386.25 0L383.52-4.41L383.52-4.41Q379.77-1.56 375.25-0.21L375.25-0.21L375.25-0.21Q370.74 1.13 366.05 1.13L366.05 1.13L366.05 1.13Q361.91 1.13 358.11 0.12L358.11 0.12L358.11 0.12Q354.30-0.90 351.02-2.77L351.02-2.77L351.02-2.77Q347.73-4.65 345.06-7.30L345.06-7.30L345.06-7.30Q342.38-9.96 340.49-13.20L340.49-13.20L340.49-13.20Q338.59-16.45 337.56-20.25L337.56-20.25L337.56-20.25Q336.52-24.06 336.52-28.20L336.52-28.20L336.52-28.20Q336.52-32.34 337.56-36.15L337.56-36.15L337.56-36.15Q338.59-39.96 340.49-43.22L340.49-43.22L340.49-43.22Q342.38-46.48 345.06-49.14L345.06-49.14L345.06-49.14Q347.73-51.80 351.02-53.67L351.02-53.67L351.02-53.67Q354.30-55.55 358.11-56.56L358.11-56.56L358.11-56.56Q361.91-57.58 366.05-57.58L366.05-57.58L366.05-57.58Q370.04-57.58 373.85-56.64L373.85-56.64L373.85-56.64Q377.66-55.70 380.94-53.81L380.94-53.81L380.94-53.81Q384.22-51.91 386.78-49.04L386.78-49.04L386.78-49.04Q389.34-46.17 390.82-42.30" fill="#3c0f0f" stroke="none" stroke-width="none" transform="translate(-192.23331451416016,22.65343205043248)" style="fill: rgb(255, 255,255);"></path></g></g>
</g>
</g>
<style id="flip-h-6620c439-4e1f-421d-8d2d-0b57c66111ea" data-anikit="">@keyframes flip-h-6620c439-4e1f-421d-8d2d-0b57c66111ea
{
  0% {
    animation-timing-function: cubic-bezier(0.1909,0.4373,0.4509,0.7454);
    transform: rotateY(0deg);
  }
  30% {
    animation-timing-function: cubic-bezier(0.128,0.2315,0.9704,0.8632);
    transform: rotateY(153.72deg);
  }
  50% {
    animation-timing-function: cubic-bezier(0.5788,0.3001,0.5613,0.6784);
    transform: rotateY(180deg);
  }
  55% {
    animation-timing-function: cubic-bezier(0.1545,0.4929,0.6089,0.9373);
    transform: rotateY(238.68deg);
  }
  100% {
    transform: rotateY(360deg);
  }
}</style></svg>